<?xml version="1.0" encoding="UTF-8"?> <svg xmlns="http://www.w3.org/2000/svg" viewBox="0 0 100 100" fill-rule="evenodd"><path d="M51.5 44v-2.08c4-.61 7-3.58 7-7.15s-3-6.54-7-7.15v-8.49c2.31.51 4 2.15 4 4.11a1.5 1.5 0 1 0 3 0c0-3.57-3-6.54-7-7.15V14a1.5 1.5 0 0 0-3 0v2.08c-4 .61-7 3.58-7 7.15s3 6.54 7 7.14v8.5c-2.3-.51-4-2.16-4-4.11a1.5 1.5 0 0 0-3 0c0 3.57 3 6.54 7 7.15V44a1.5 1.5 0 0 0 3 0Zm4-9.23c0 2-1.69 3.6-4 4.11v-8.22c2.31.51 4 2.16 4 4.11Zm-11-11.53c0-2 1.69-3.6 4-4.11v8.21c-2.31-.52-4-2.16-4-4.11Z" fill="#518f4d"></path><path d="M77.5 59v-.28a1.45 1.45 0 0 0 0-.14v-.14l-.07-.13-.07-.13-.09-.11-.09-.11-.18-.11-.11-.09-.12-.07-.13-.07H76A28.2 28.2 0 0 0 51.5 73V53.45a24.5 24.5 0 1 0-3 0V73A28.2 28.2 0 0 0 24 57.5a1.49 1.49 0 0 0-.77.24l-.12.1-.12.1a1.46 1.46 0 0 0-.15.18 1.45 1.45 0 0 0-.12.23v.07a1.47 1.47 0 0 0-.06.2s0 .09 0 .13v.14c0 .05 0 0 0 0a28.22 28.22 0 0 0 26 27.41V95a1.5 1.5 0 0 0 3 0v-8.57A28.22 28.22 0 0 0 77.5 59Zm-49-30A21.5 21.5 0 1 1 50 50.5 21.52 21.52 0 0 1 28.5 29Zm-2.91 31.59a25.22 25.22 0 0 1 22.82 22.82 25.22 25.22 0 0 1-22.82-22.82Zm26 22.82a25.22 25.22 0 0 1 22.82-22.82 25.22 25.22 0 0 1-22.82 22.82Z" fill="#518f4d"></path></svg> 